<svg width="5359" height="835" viewBox="0 0 5359 835" fill="none" xmlns="http://www.w3.org/2000/svg">
<path d="M588.689 280V269.66H628.639V16.33H588.689V5.99H807.709V81.19H795.489V16.33H642.739V135.24H743.789V95.29H756.009V187.88H744.259V145.58H642.739V269.66H802.539V202.45H814.759V280H588.689ZM846.308 280V269.66H886.258V16.33H846.308V5.99H897.538L1086.01 259.32V16.33H1046.06V5.99H1139.12V16.33H1099.17V280H1086.48L899.418 28.55V269.66H939.368V280H846.308ZM1164.61 360.37H1142.52V350.03H1163.67C1175.58 350.03 1184.19 347.367 1189.52 342.04C1195.16 336.713 1197.98 328.097 1197.98 316.19V16.33H1153.33V5.99H1252.03V16.33H1212.08V314.78C1212.08 330.133 1208.16 341.57 1200.33 349.09C1192.5 356.61 1180.59 360.37 1164.61 360.37ZM1420.07 284.7C1391.87 284.7 1366.96 278.747 1345.34 266.84C1324.03 254.933 1307.43 238.327 1295.52 217.02C1283.61 195.713 1277.66 171.117 1277.66 143.23C1277.66 115.343 1283.61 90.7467 1295.52 69.44C1307.43 48.1333 1324.03 31.37 1345.34 19.15C1366.96 6.92999 1391.87 0.819981 1420.07 0.819981C1448.58 0.819981 1473.49 6.92999 1494.8 19.15C1516.11 31.37 1532.71 48.1333 1544.62 69.44C1556.53 90.7467 1562.48 115.343 1562.48 143.23C1562.48 171.117 1556.53 195.713 1544.62 217.02C1532.71 238.327 1516.11 254.933 1494.8 266.84C1473.49 278.747 1448.58 284.7 1420.07 284.7ZM1420.07 272.95C1445.76 272.95 1468.01 267.623 1486.81 256.97C1505.92 246.317 1520.81 231.277 1531.46 211.85C1542.11 192.423 1547.44 169.707 1547.44 143.7C1547.44 118.007 1542.11 95.29 1531.46 75.55C1520.81 55.81 1505.92 40.4567 1486.81 29.49C1468.01 18.21 1445.76 12.57 1420.07 12.57C1394.69 12.57 1372.44 18.21 1353.33 29.49C1334.22 40.4567 1319.33 55.81 1308.68 75.55C1298.03 95.29 1292.7 118.007 1292.7 143.7C1292.7 169.707 1298.03 192.423 1308.68 211.85C1319.33 231.277 1334.22 246.317 1353.33 256.97C1372.44 267.623 1394.69 272.95 1420.07 272.95ZM1651.56 280V269.66H1696.21V163.91L1597.98 16.33H1562.73V5.99H1650.62V16.33H1613.02L1707.49 157.8H1700.44L1793.97 16.33H1756.37V5.99H1843.79V16.33H1808.54L1710.31 163.91V269.66H1754.96V280H1651.56ZM2022.96 280V269.66H2067.61V16.33H1965.62V90.59H1953.4V5.99H2195.92V90.59H2183.7V16.33H2081.71V269.66H2126.36V280H2022.96ZM2212.56 280V269.66H2252.51V16.33H2212.56V5.99H2306.56V16.33H2266.61V135.24H2445.21V16.33H2405.26V5.99H2499.26V16.33H2459.31V269.66H2499.26V280H2405.26V269.66H2445.21V145.58H2266.61V269.66H2306.56V280H2212.56ZM2522.96 280V269.66H2562.91V16.33H2522.96V5.99H2741.98V81.19H2729.76V16.33H2577.01V135.24H2678.06V95.29H2690.28V187.88H2678.53V145.58H2577.01V269.66H2736.81V202.45H2749.03V280H2522.96ZM2892.7 280V269.66H2932.65V16.33H2892.7V5.99H3031.82C3058.45 5.99 3078.35 12.57 3091.51 25.73C3104.67 38.5767 3111.25 56.9067 3111.25 80.72C3111.25 104.533 3104.67 123.02 3091.51 136.18C3078.35 149.027 3058.45 155.45 3031.82 155.45H2970.25V145.11H3028.06C3053.44 145.11 3071.14 139.313 3081.17 127.72C3091.2 115.813 3096.21 100.147 3096.21 80.72C3096.21 61.2933 3091.2 45.7833 3081.17 34.19C3071.14 22.2833 3053.44 16.33 3028.06 16.33H2946.75V269.66H2996.1V280H2892.7ZM3142.06 280V269.66H3182.01V16.33H3142.06V5.99H3281.18C3307.81 5.99 3327.71 12.57 3340.87 25.73C3354.03 38.5767 3360.61 56.9067 3360.61 80.72C3360.61 104.533 3354.03 123.02 3340.87 136.18C3327.71 149.027 3307.81 155.45 3281.18 155.45H3274.13L3276.95 151.69L3350.27 269.66H3390.22V280H3340.87L3263.79 155.45H3219.61V145.11H3277.42C3302.8 145.11 3320.5 139.313 3330.53 127.72C3340.55 115.813 3345.57 100.147 3345.57 80.72C3345.57 61.2933 3340.55 45.7833 3330.53 34.19C3320.5 22.2833 3302.8 16.33 3277.42 16.33H3196.11V269.66H3236.06V280H3142.06ZM3554.13 284.7C3525.93 284.7 3501.02 278.747 3479.4 266.84C3458.09 254.933 3441.48 238.327 3429.58 217.02C3417.67 195.713 3411.72 171.117 3411.72 143.23C3411.72 115.343 3417.67 90.7467 3429.58 69.44C3441.48 48.1333 3458.09 31.37 3479.4 19.15C3501.02 6.92999 3525.93 0.819981 3554.13 0.819981C3582.64 0.819981 3607.55 6.92999 3628.86 19.15C3650.16 31.37 3666.77 48.1333 3678.68 69.44C3690.58 90.7467 3696.54 115.343 3696.54 143.23C3696.54 171.117 3690.58 195.713 3678.68 217.02C3666.77 238.327 3650.16 254.933 3628.86 266.84C3607.55 278.747 3582.64 284.7 3554.13 284.7ZM3554.13 272.95C3579.82 272.95 3602.07 267.623 3620.87 256.97C3639.98 246.317 3654.86 231.277 3665.52 211.85C3676.17 192.423 3681.5 169.707 3681.5 143.7C3681.5 118.007 3676.17 95.29 3665.52 75.55C3654.86 55.81 3639.98 40.4567 3620.87 29.49C3602.07 18.21 3579.82 12.57 3554.13 12.57C3528.75 12.57 3506.5 18.21 3487.39 29.49C3468.27 40.4567 3453.39 55.81 3442.74 75.55C3432.08 95.29 3426.76 118.007 3426.76 143.7C3426.76 169.707 3432.08 192.423 3442.74 211.85C3453.39 231.277 3468.27 246.317 3487.39 256.97C3506.5 267.623 3528.75 272.95 3554.13 272.95ZM3875.16 284.7C3845.71 284.7 3820.02 278.747 3798.08 266.84C3776.15 254.933 3759.23 238.327 3747.32 217.02C3735.42 195.713 3729.46 171.117 3729.46 143.23C3729.46 115.343 3735.42 90.7467 3747.32 69.44C3759.54 48.1333 3776.31 31.37 3797.61 19.15C3818.92 6.92999 3843.67 0.819981 3871.87 0.819981C3899.76 0.819981 3923.26 7.08665 3942.37 19.62C3961.8 32.1533 3975.9 49.23 3984.67 70.85H3979.03V5.99H3991.25V81.19H3980.44C3970.1 57.0633 3955.53 39.6733 3936.73 29.02C3917.93 18.0533 3896.31 12.57 3871.87 12.57C3846.49 12.57 3824.25 18.21 3805.13 29.49C3786.02 40.4567 3771.14 55.81 3760.48 75.55C3749.83 95.29 3744.5 118.007 3744.5 143.7C3744.5 169.707 3749.83 192.423 3760.48 211.85C3771.14 231.277 3786.18 246.317 3805.6 256.97C3825.34 267.623 3848.53 272.95 3875.16 272.95C3900.23 272.95 3921.07 268.25 3937.67 258.85C3954.28 249.45 3968.38 234.567 3979.97 214.2L3991.25 220.78C3978.41 242.713 3962.58 258.85 3943.78 269.19C3924.98 279.53 3902.11 284.7 3875.16 284.7ZM4025.07 280V269.66H4065.02V16.33H4025.07V5.99H4244.09V81.19H4231.87V16.33H4079.12V135.24H4180.17V95.29H4192.39V187.88H4180.64V145.58H4079.12V269.66H4238.92V202.45H4251.14V280H4025.07ZM4403.95 285.17C4379.19 285.17 4359.14 280.313 4343.79 270.6C4328.43 260.887 4318.41 248.04 4313.71 232.06H4315.12V280H4302.9V190.7H4315.12C4315.12 215.453 4321.7 235.507 4334.86 250.86C4348.33 265.9 4371.36 273.42 4403.95 273.42C4429.95 273.42 4448.91 267.78 4460.82 256.5C4473.04 245.22 4479.15 230.337 4479.15 211.85C4479.15 192.423 4474.76 178.323 4465.99 169.55C4457.53 160.777 4442.64 154.823 4421.34 151.69L4376.69 144.64C4350.99 140.567 4332.04 132.733 4319.82 121.14C4307.91 109.547 4301.96 93.41 4301.96 72.73C4301.96 60.1967 4304.78 48.4467 4310.42 37.48C4316.37 26.5133 4325.61 17.74 4338.15 11.16C4350.99 4.26665 4367.44 0.819981 4387.5 0.819981C4411 0.819981 4429.8 5.67665 4443.9 15.39C4458.31 24.79 4467.71 37.01 4472.1 52.05H4469.75V5.51998H4481.97V80.72H4469.75C4469.75 60.6667 4462.85 44.3733 4449.07 31.84C4435.28 18.9933 4414.91 12.57 4387.97 12.57C4370.73 12.57 4356.79 15.39 4346.14 21.03C4335.48 26.3567 4327.81 33.72 4323.11 43.12C4318.41 52.2067 4316.06 62.2333 4316.06 73.2C4316.06 89.4933 4320.76 102.34 4330.16 111.74C4339.87 121.14 4354.44 127.407 4373.87 130.54L4418.52 137.59C4445.46 141.663 4464.58 149.34 4475.86 160.62C4487.45 171.9 4493.25 188.507 4493.25 210.44C4493.25 225.167 4489.96 238.17 4483.38 249.45C4476.8 260.73 4466.93 269.503 4453.77 275.77C4440.61 282.037 4424 285.17 4403.95 285.17ZM4651.01 285.17C4626.26 285.17 4606.2 280.313 4590.85 270.6C4575.5 260.887 4565.47 248.04 4560.77 232.06H4562.18V280H4549.96V190.7H4562.18C4562.18 215.453 4568.76 235.507 4581.92 250.86C4595.39 265.9 4618.42 273.42 4651.01 273.42C4677.02 273.42 4695.97 267.78 4707.88 256.5C4720.1 245.22 4726.21 230.337 4726.21 211.85C4726.21 192.423 4721.82 178.323 4713.05 169.55C4704.59 160.777 4689.71 154.823 4668.4 151.69L4623.75 144.64C4598.06 140.567 4579.1 132.733 4566.88 121.14C4554.97 109.547 4549.02 93.41 4549.02 72.73C4549.02 60.1967 4551.84 48.4467 4557.48 37.48C4563.43 26.5133 4572.68 17.74 4585.21 11.16C4598.06 4.26665 4614.51 0.819981 4634.56 0.819981C4658.06 0.819981 4676.86 5.67665 4690.96 15.39C4705.37 24.79 4714.77 37.01 4719.16 52.05H4716.81V5.51998H4729.03V80.72H4716.81C4716.81 60.6667 4709.92 44.3733 4696.13 31.84C4682.34 18.9933 4661.98 12.57 4635.03 12.57C4617.8 12.57 4603.85 15.39 4593.2 21.03C4582.55 26.3567 4574.87 33.72 4570.17 43.12C4565.47 52.2067 4563.12 62.2333 4563.12 73.2C4563.12 89.4933 4567.82 102.34 4577.22 111.74C4586.93 121.14 4601.5 127.407 4620.93 130.54L4665.58 137.59C4692.53 141.663 4711.64 149.34 4722.92 160.62C4734.51 171.9 4740.31 188.507 4740.31 210.44C4740.31 225.167 4737.02 238.17 4730.44 249.45C4723.86 260.73 4713.99 269.503 4700.83 275.77C4687.67 282.037 4671.06 285.17 4651.01 285.17ZM14.2559 480H163.256C211.256 480 248.756 490.333 275.756 511C302.756 531.667 316.256 562.167 316.256 602.5C316.256 642.833 302.756 672.667 275.756 692C249.089 711.333 211.589 721 163.256 721H130.756V816.5C130.756 820.167 129.423 823.333 126.756 826C124.089 828.667 120.923 830 117.256 830H14.2559C10.5892 830 7.42253 828.667 4.75586 826C2.0892 823.333 0.755862 820.167 0.755862 816.5V493.5C0.755862 489.833 2.0892 486.667 4.75586 484C7.42253 481.333 10.5892 480 14.2559 480ZM128.256 573V628.5H163.256C169.256 628.5 174.589 626.333 179.256 622C183.923 617.333 186.256 610.833 186.256 602.5C186.256 594.167 184.423 587.167 180.756 581.5C177.089 575.833 171.256 573 163.256 573H128.256ZM448.549 732.5H602.549C606.216 732.5 609.382 733.833 612.049 736.5C614.716 739.167 616.049 742.333 616.049 746V816.5C616.049 820.167 614.716 823.333 612.049 826C609.382 828.667 606.216 830 602.549 830H342.049C338.382 830 335.215 828.667 332.549 826C329.882 823.333 328.549 820.167 328.549 816.5V493.5C328.549 489.833 329.882 486.667 332.549 484C335.215 481.333 338.382 480 342.049 480H598.549C602.216 480 605.382 481.333 608.049 484C610.716 486.667 612.049 489.833 612.049 493.5V564C612.049 567.667 610.716 570.833 608.049 573.5C605.382 576.167 602.216 577.5 598.549 577.5H448.549V609H587.549C591.216 609 594.382 610.333 597.049 613C599.716 615.667 601.049 618.833 601.049 622.5V687.5C601.049 691.167 599.716 694.333 597.049 697C594.382 699.667 591.216 701 587.549 701H448.549V732.5ZM963.205 813.5C964.205 815.5 964.705 817.667 964.705 820C964.705 822.333 963.538 824.667 961.205 827C959.205 829 956.705 830 953.705 830H851.205C840.872 830 833.705 825.5 829.705 816.5L786.705 721H766.205V816.5C766.205 820.167 764.872 823.333 762.205 826C759.538 828.667 756.372 830 752.705 830H654.705C651.038 830 647.872 828.667 645.205 826C642.538 823.333 641.205 820.167 641.205 816.5V493.5C641.205 489.833 642.538 486.667 645.205 484C647.872 481.333 651.038 480 654.705 480H802.705C850.705 480 888.205 490.833 915.205 512.5C942.205 533.833 955.705 564.667 955.705 605C955.705 645 937.705 676.5 901.705 699.5L963.205 813.5ZM766.205 573V626H802.705C810.038 626 815.705 623.667 819.705 619C823.705 614 825.705 607.833 825.705 600.5C825.705 593.167 823.705 586.833 819.705 581.5C816.038 575.833 810.372 573 802.705 573H766.205ZM990.799 480H1242.8C1246.47 480 1249.63 481.333 1252.3 484C1254.97 486.667 1256.3 489.833 1256.3 493.5V569.5C1256.3 573.167 1254.97 576.333 1252.3 579C1249.63 581.667 1246.47 583 1242.8 583H1099.8V620H1232.8C1236.47 620 1239.63 621.333 1242.3 624C1244.97 626.667 1246.3 629.833 1246.3 633.5V709C1246.3 712.667 1244.97 715.833 1242.3 718.5C1239.63 721.167 1236.47 722.5 1232.8 722.5H1099.8V816.5C1099.8 820.167 1098.47 823.333 1095.8 826C1093.13 828.667 1089.97 830 1086.3 830H990.799C987.132 830 983.965 828.667 981.299 826C978.632 823.333 977.299 820.167 977.299 816.5V493.5C977.299 489.833 978.632 486.667 981.299 484C983.965 481.333 987.132 480 990.799 480ZM1393.84 732.5H1547.84C1551.51 732.5 1554.68 733.833 1557.34 736.5C1560.01 739.167 1561.34 742.333 1561.34 746V816.5C1561.34 820.167 1560.01 823.333 1557.34 826C1554.68 828.667 1551.51 830 1547.84 830H1287.34C1283.68 830 1280.51 828.667 1277.84 826C1275.18 823.333 1273.84 820.167 1273.84 816.5V493.5C1273.84 489.833 1275.18 486.667 1277.84 484C1280.51 481.333 1283.68 480 1287.34 480H1543.84C1547.51 480 1550.68 481.333 1553.34 484C1556.01 486.667 1557.34 489.833 1557.34 493.5V564C1557.34 567.667 1556.01 570.833 1553.34 573.5C1550.68 576.167 1547.51 577.5 1543.84 577.5H1393.84V609H1532.84C1536.51 609 1539.68 610.333 1542.34 613C1545.01 615.667 1546.34 618.833 1546.34 622.5V687.5C1546.34 691.167 1545.01 694.333 1542.34 697C1539.68 699.667 1536.51 701 1532.84 701H1393.84V732.5ZM1706.5 613V697C1706.5 724 1718.83 737.5 1743.5 737.5C1762.5 737.5 1775 728.5 1781 710.5C1782.66 704.833 1784.66 701 1787 699C1789.66 697 1793.83 696 1799.5 696H1901.5C1904.5 696 1907 697.167 1909 699.5C1911.33 701.5 1912.5 704 1912.5 707C1912.5 736 1904.16 760.333 1887.5 780C1856.83 816.667 1809 835 1744 835C1693 835 1652.33 823.833 1622 801.5C1591.66 778.833 1576.5 744.167 1576.5 697.5V612.5C1576.5 566.833 1592 532.5 1623 509.5C1654 486.5 1694.33 475 1744 475C1809 475 1856.83 493.333 1887.5 530C1904.16 549.667 1912.5 574 1912.5 603C1912.5 606 1911.33 608.667 1909 611C1907 613 1904.5 614 1901.5 614H1799.5C1794.16 614 1790.16 613 1787.5 611C1785.16 609 1783 605.167 1781 599.5C1774.66 581.5 1762.16 572.5 1743.5 572.5C1718.83 572.5 1706.5 586 1706.5 613ZM1921.03 480H2214.03C2217.7 480 2220.87 481.333 2223.53 484C2226.2 486.667 2227.53 489.833 2227.53 493.5V574C2227.53 577.667 2226.2 580.833 2223.53 583.5C2220.87 586.167 2217.7 587.5 2214.03 587.5H2131.03V816.5C2131.03 820.167 2129.7 823.333 2127.03 826C2124.37 828.667 2121.2 830 2117.53 830H2017.53C2013.87 830 2010.7 828.667 2008.03 826C2005.37 823.333 2004.03 820.167 2004.03 816.5V587.5H1921.03C1917.37 587.5 1914.2 586.167 1911.53 583.5C1908.87 580.833 1907.53 577.667 1907.53 574V493.5C1907.53 489.833 1908.87 486.667 1911.53 484C1914.2 481.333 1917.37 480 1921.03 480ZM2346.15 480H2639.15C2642.82 480 2645.98 481.333 2648.65 484C2651.32 486.667 2652.65 489.833 2652.65 493.5V574C2652.65 577.667 2651.32 580.833 2648.65 583.5C2645.98 586.167 2642.82 587.5 2639.15 587.5H2556.15V816.5C2556.15 820.167 2554.82 823.333 2552.15 826C2549.48 828.667 2546.32 830 2542.65 830H2442.65C2438.98 830 2435.82 828.667 2433.15 826C2430.48 823.333 2429.15 820.167 2429.15 816.5V587.5H2346.15C2342.48 587.5 2339.32 586.167 2336.65 583.5C2333.98 580.833 2332.65 577.667 2332.65 574V493.5C2332.65 489.833 2333.98 486.667 2336.65 484C2339.32 481.333 2342.48 480 2346.15 480ZM2884.75 480H2982.75C2986.41 480 2989.58 481.333 2992.25 484C2994.91 486.667 2996.25 489.833 2996.25 493.5V816.5C2996.25 820.167 2994.91 823.333 2992.25 826C2989.58 828.667 2986.41 830 2982.75 830H2884.75C2881.08 830 2877.91 828.667 2875.25 826C2872.58 823.333 2871.25 820.167 2871.25 816.5V708.5H2790.25V816.5C2790.25 820.167 2788.91 823.333 2786.25 826C2783.58 828.667 2780.41 830 2776.75 830H2678.75C2675.08 830 2671.91 828.833 2669.25 826.5C2666.58 823.833 2665.25 820.5 2665.25 816.5V493.5C2665.25 489.833 2666.58 486.667 2669.25 484C2671.91 481.333 2675.08 480 2678.75 480H2776.75C2780.41 480 2783.58 481.333 2786.25 484C2788.91 486.667 2790.25 489.833 2790.25 493.5V598.5H2871.25V493.5C2871.25 489.833 2872.58 486.667 2875.25 484C2877.91 481.333 2881.08 480 2884.75 480ZM3146.24 732.5H3300.24C3303.91 732.5 3307.08 733.833 3309.74 736.5C3312.41 739.167 3313.74 742.333 3313.74 746V816.5C3313.74 820.167 3312.41 823.333 3309.74 826C3307.08 828.667 3303.91 830 3300.24 830H3039.74C3036.08 830 3032.91 828.667 3030.24 826C3027.58 823.333 3026.24 820.167 3026.24 816.5V493.5C3026.24 489.833 3027.58 486.667 3030.24 484C3032.91 481.333 3036.08 480 3039.74 480H3296.24C3299.91 480 3303.08 481.333 3305.74 484C3308.41 486.667 3309.74 489.833 3309.74 493.5V564C3309.74 567.667 3308.41 570.833 3305.74 573.5C3303.08 576.167 3299.91 577.5 3296.24 577.5H3146.24V609H3285.24C3288.91 609 3292.08 610.333 3294.74 613C3297.41 615.667 3298.74 618.833 3298.74 622.5V687.5C3298.74 691.167 3297.41 694.333 3294.74 697C3292.08 699.667 3288.91 701 3285.24 701H3146.24V732.5ZM3770.92 813.5C3771.92 815.5 3772.42 817.667 3772.42 820C3772.42 822.333 3771.25 824.667 3768.92 827C3766.92 829 3764.42 830 3761.42 830H3658.92C3648.59 830 3641.42 825.5 3637.42 816.5L3594.42 721H3573.92V816.5C3573.92 820.167 3572.59 823.333 3569.92 826C3567.25 828.667 3564.09 830 3560.42 830H3462.42C3458.75 830 3455.59 828.667 3452.92 826C3450.25 823.333 3448.92 820.167 3448.92 816.5V493.5C3448.92 489.833 3450.25 486.667 3452.92 484C3455.59 481.333 3458.75 480 3462.42 480H3610.42C3658.42 480 3695.92 490.833 3722.92 512.5C3749.92 533.833 3763.42 564.667 3763.42 605C3763.42 645 3745.42 676.5 3709.42 699.5L3770.92 813.5ZM3573.92 573V626H3610.42C3617.75 626 3623.42 623.667 3627.42 619C3631.42 614 3633.42 607.833 3633.42 600.5C3633.42 593.167 3631.42 586.833 3627.42 581.5C3623.75 575.833 3618.09 573 3610.42 573H3573.92ZM3905.01 732.5H4059.01C4062.68 732.5 4065.85 733.833 4068.51 736.5C4071.18 739.167 4072.51 742.333 4072.51 746V816.5C4072.51 820.167 4071.18 823.333 4068.51 826C4065.85 828.667 4062.68 830 4059.01 830H3798.51C3794.85 830 3791.68 828.667 3789.01 826C3786.35 823.333 3785.01 820.167 3785.01 816.5V493.5C3785.01 489.833 3786.35 486.667 3789.01 484C3791.68 481.333 3794.85 480 3798.51 480H4055.01C4058.68 480 4061.85 481.333 4064.51 484C4067.18 486.667 4068.51 489.833 4068.51 493.5V564C4068.51 567.667 4067.18 570.833 4064.51 573.5C4061.85 576.167 4058.68 577.5 4055.01 577.5H3905.01V609H4044.01C4047.68 609 4050.85 610.333 4053.51 613C4056.18 615.667 4057.51 618.833 4057.51 622.5V687.5C4057.51 691.167 4056.18 694.333 4053.51 697C4050.85 699.667 4047.68 701 4044.01 701H3905.01V732.5ZM4088.67 590C4088.67 556 4102.67 528.333 4130.67 507C4159 485.667 4196 475 4241.67 475C4287.67 475 4325.17 486.167 4354.17 508.5C4383.5 530.833 4398.17 554.167 4398.17 578.5C4398.17 581.5 4397 584.167 4394.67 586.5C4392.67 588.5 4390.34 589.5 4387.67 589.5H4287.67C4280 589.5 4273 586.667 4266.67 581C4260.34 575.333 4251.84 572.5 4241.17 572.5C4225.17 572.5 4217.17 577.167 4217.17 586.5C4217.17 591.5 4221 595.667 4228.67 599C4236.67 602.333 4251.34 605.333 4272.67 608C4322.34 614.333 4357.67 626 4378.67 643C4400 659.667 4410.67 685.167 4410.67 719.5C4410.67 753.5 4395 781.333 4363.67 803C4332.67 824.333 4292 835 4241.67 835C4191.34 835 4151.84 824.667 4123.17 804C4094.5 783.333 4080.17 758.167 4080.17 728.5C4080.17 725.5 4081.17 723 4083.17 721C4085.5 718.667 4088.17 717.5 4091.17 717.5H4186.17C4193.17 717.5 4200.84 720.833 4209.17 727.5C4217.84 734.167 4229.67 737.5 4244.67 737.5C4269.67 737.5 4282.17 732.833 4282.17 723.5C4282.17 717.5 4277.67 713 4268.67 710C4259.67 706.667 4242.67 703.333 4217.67 700C4131.67 688.667 4088.67 652 4088.67 590ZM4630.52 480H4728.52C4732.19 480 4735.35 481.333 4738.02 484C4740.69 486.667 4742.02 489.833 4742.02 493.5V694.5C4742.02 741.167 4727.52 776.333 4698.52 800C4669.52 823.333 4630.02 835 4580.02 835C4530.35 835 4490.85 823.333 4461.52 800C4432.52 776.667 4418.02 741.5 4418.02 694.5V493.5C4418.02 489.833 4419.35 486.667 4422.02 484C4424.69 481.333 4427.85 480 4431.52 480H4529.52C4533.19 480 4536.35 481.333 4539.02 484C4541.69 486.667 4543.02 489.833 4543.02 493.5V696C4543.02 721.667 4555.35 734.5 4580.02 734.5C4604.69 734.5 4617.02 721.667 4617.02 696V493.5C4617.02 489.833 4618.35 486.667 4621.02 484C4623.69 481.333 4626.85 480 4630.52 480ZM4893.93 727.5H5032.43C5036.09 727.5 5039.26 728.833 5041.93 731.5C5044.59 734.167 5045.93 737.333 5045.93 741V816.5C5045.93 820.167 5044.59 823.333 5041.93 826C5039.26 828.667 5036.09 830 5032.43 830H4780.43C4776.76 830 4773.59 828.667 4770.93 826C4768.26 823.333 4766.93 820.167 4766.93 816.5V493.5C4766.93 489.833 4768.26 486.667 4770.93 484C4773.59 481.333 4776.76 480 4780.43 480H4880.43C4884.09 480 4887.26 481.333 4889.93 484C4892.59 486.667 4893.93 489.833 4893.93 493.5V727.5ZM5052.15 480H5345.15C5348.81 480 5351.98 481.333 5354.65 484C5357.31 486.667 5358.65 489.833 5358.65 493.5V574C5358.65 577.667 5357.31 580.833 5354.65 583.5C5351.98 586.167 5348.81 587.5 5345.15 587.5H5262.15V816.5C5262.15 820.167 5260.81 823.333 5258.15 826C5255.48 828.667 5252.31 830 5248.65 830H5148.65C5144.98 830 5141.81 828.667 5139.15 826C5136.48 823.333 5135.15 820.167 5135.15 816.5V587.5H5052.15C5048.48 587.5 5045.31 586.167 5042.65 583.5C5039.98 580.833 5038.65 577.667 5038.65 574V493.5C5038.65 489.833 5039.98 486.667 5042.65 484C5045.31 481.333 5048.48 480 5052.15 480Z" fill="black"/>
</svg>
